<svg width="135" height="549" viewBox="0 0 135 549" fill="none" xmlns="http://www.w3.org/2000/svg">
<path d="M124.299 55.6161C122.488 55.562 120.924 56.984 120.481 58.9388C117.672 59.1621 114.466 59.2376 110.948 59.0109C108.981 58.8815 107.121 58.6724 105.376 58.4133C105.385 58.0712 105.391 57.7257 105.391 57.3801C105.391 55.6987 105.276 54.0465 105.051 52.4302C105.938 51.7355 107.049 51.0047 108.391 50.3779C110.723 49.2839 112.908 48.8948 114.588 48.7833C115.415 50.7023 117.306 51.8178 119.126 51.3323C121.171 50.785 122.339 48.4198 121.736 46.0473C121.134 43.6752 118.989 42.1917 116.944 42.739C115.081 43.2393 113.945 45.2483 114.213 47.3972C112.74 48.2543 110.551 49.183 107.842 49.2516C106.5 49.2874 105.329 49.1036 104.38 48.866C103.778 46.357 102.91 43.9519 101.808 41.6841C102.975 40.6042 104.355 39.4592 105.972 38.354C108.313 36.7485 110.57 35.6001 112.552 34.776C113.845 36.3235 115.908 36.8385 117.497 35.895C119.323 34.8154 119.841 32.2123 118.649 30.0887C117.453 27.9644 114.997 27.1221 113.17 28.2055C111.578 29.1452 110.985 31.2336 111.641 33.1558C109.94 34.5096 107.845 35.9386 105.332 37.2132C103.621 38.0843 101.986 38.7466 100.506 39.2504C99.2981 37.1732 97.8778 35.2366 96.2889 33.4691C96.9007 31.1939 97.9339 28.5367 99.6945 25.8731C101.346 23.3818 103.184 21.5639 104.745 20.2855C106.462 21.3766 108.622 21.2072 109.852 19.7708C111.251 18.1439 110.929 15.5123 109.134 13.8921C107.342 12.2687 104.755 12.2722 103.362 13.8991C102.126 15.3358 102.229 17.5498 103.506 19.1661C102.498 20.8725 100.974 22.9891 98.7331 25.0052C96.2639 27.2303 93.7791 28.5623 91.8905 29.3543C89.7429 27.6656 87.3986 26.2327 84.892 25.099C85.2572 24.0658 85.7379 23.0253 86.3685 22.003C86.8742 21.1931 87.4173 20.4799 87.9698 19.8576C89.8802 20.6531 92.0123 20.0802 92.9737 18.4135C94.0569 16.5525 93.2672 14.0253 91.21 12.7724C89.156 11.5196 86.6151 12.0128 85.535 13.8777C84.5892 15.5158 85.0886 17.6683 86.6151 19.0147C86.2967 19.8787 85.9096 20.7755 85.4507 21.6895C84.9263 22.7409 84.3519 23.7094 83.7494 24.6058C83.4966 24.5014 83.2406 24.4005 82.9878 24.3073C80.0004 23.1624 76.8226 22.4389 73.5106 22.1936C72.9675 20.689 72.493 19.0214 72.1621 17.1898C71.4847 13.4524 71.6096 10.1994 71.9218 7.75649C73.8696 7.37378 75.3305 5.80418 75.3305 3.92361C75.3305 1.75671 73.392 -0.000244055 71.0009 -0.000244055C68.6129 -0.000244055 66.6744 1.75671 66.6744 3.92361C66.6744 5.83685 68.1883 7.42791 70.183 7.7754C70.6169 10.1825 70.901 13.5529 70.2299 17.4595C69.9333 19.1793 69.4963 20.7466 68.9843 22.1651C65.8097 22.3489 62.7537 22.9779 59.8662 23.9915C59.4635 23.3372 59.1045 22.6503 58.783 21.84C58.1431 20.2358 57.8652 18.7312 57.756 17.4793C59.6227 16.482 60.5873 14.3898 59.9255 12.5387C59.2044 10.5027 56.7946 9.53459 54.5501 10.3759C52.3057 11.2172 51.0727 13.5494 51.7969 15.585C52.4212 17.3419 54.3004 18.3005 56.2483 17.9905C56.8164 19.1886 57.3596 20.5705 57.7903 22.1398C58.0151 22.9712 58.1868 23.7837 58.3179 24.5786C55.6989 25.6434 53.2391 27.0318 50.9821 28.6933C49.7928 27.8123 48.5785 26.789 47.3799 25.5896C44.6172 22.8293 42.7724 19.9982 41.5612 17.7301C42.9035 16.2073 43.1376 14.0275 42.0138 12.5255C40.7246 10.8073 38.1462 10.6257 36.2514 12.1204C34.3566 13.6147 33.8634 16.2194 35.1526 17.9373C36.2888 19.456 38.4365 19.7718 40.2252 18.7937C41.9764 20.4004 44.2458 22.9359 46.0064 26.5799C46.8086 28.2465 47.3705 29.8674 47.7607 31.379C47.3986 31.7204 47.0365 32.0727 46.6869 32.432C44.92 34.2454 43.3468 36.2531 41.9951 38.4261C41.1991 38.1903 40.375 37.9063 39.5322 37.5575C36.7821 36.4231 34.6531 34.9775 33.1111 33.7179C33.7666 31.7585 33.1298 29.6442 31.4972 28.7279C29.6461 27.6864 27.2144 28.585 26.0657 30.7353C24.9169 32.8858 25.485 35.4736 27.3393 36.5147C28.9687 37.431 31.0415 36.8456 32.3026 35.2298C34.1755 35.8941 36.5042 36.9599 38.9141 38.7098C39.6321 39.2325 40.2938 39.7702 40.9057 40.3111C38.9984 43.8343 37.6686 47.7284 37.0349 51.8626C35.3867 52.0074 33.6105 52.0759 31.7063 52.016C28.9874 51.9299 26.5308 51.6029 24.3862 51.1773C24.3363 49.0152 22.9253 47.2051 21.0118 46.9991C18.9141 46.773 17.0068 48.5665 16.7602 51.0056C16.5074 53.4441 18.0119 55.6046 20.1097 55.8307C21.9795 56.0318 23.6901 54.6319 24.2208 52.6031C26.4246 52.6489 28.8969 52.8507 31.5753 53.3234C33.4264 53.6504 35.1463 54.068 36.729 54.5314C36.6541 55.4704 36.6166 56.42 36.6166 57.3801C36.6166 59.6607 36.8258 61.8913 37.2316 64.0531C35.4117 65.2896 32.8957 66.6927 29.6992 67.6775C26.896 68.5416 24.3706 68.8356 22.3603 68.8987C21.6393 66.9761 19.8443 65.7771 18.0244 66.137C15.9517 66.5483 14.6344 68.8327 15.0902 71.2404C15.5428 73.6485 17.5906 75.2671 19.6664 74.8559C21.4582 74.501 22.6787 72.745 22.685 70.7203C24.7452 70.033 27.1738 69.3887 29.9395 68.9682C33.1204 68.4862 35.9704 68.4173 38.3678 68.5243C39.3324 71.5075 40.6809 74.3108 42.3447 76.8767C41.5612 77.5143 40.6809 78.1443 39.7008 78.7329C37.8122 79.8603 36.0017 80.5616 34.4315 81.0148C33.3639 79.2735 31.3786 78.4556 29.6649 79.1672C27.7076 79.981 26.8429 82.4829 27.7451 84.7545C28.307 86.18 29.4307 87.1808 30.6731 87.5229C31.4067 87.7281 32.184 87.7028 32.9113 87.4002C33.1298 87.3105 33.3327 87.1988 33.52 87.0655C34.9528 86.0942 35.5584 84.0807 34.9528 82.1594C36.4387 81.3729 38.1743 80.594 40.1783 79.9515C41.4613 79.5394 42.6881 79.239 43.8431 79.0148C44.8951 80.4108 46.0501 81.7203 47.2925 82.9297C47.4111 83.0443 47.5266 83.1596 47.6452 83.2675C46.8055 85.1901 45.5412 87.5264 43.6339 89.8954C41.7672 92.2134 39.8256 93.9022 38.193 95.0935C36.5542 93.9022 34.4097 93.9271 33.0892 95.2626C31.5878 96.7858 31.7313 99.4353 33.4139 101.181C35.0902 102.924 37.6748 103.104 39.1763 101.581C40.478 100.26 40.5436 98.0854 39.4323 96.3967C40.7184 94.6797 42.3947 92.7428 44.5361 90.8312C46.8336 88.7792 49.103 87.2599 51.0789 86.1406C53.6948 88.0484 56.5854 89.5927 59.6727 90.6982C59.5478 91.8896 59.3387 93.1748 58.9984 94.5247C58.2586 97.466 57.1442 99.8241 56.1328 101.559C54.1537 101.153 52.1965 102.081 51.5253 103.859C50.7636 105.879 51.953 108.234 54.1818 109.119C56.4106 110.006 58.8361 109.084 59.5977 107.06C60.2626 105.303 59.4479 103.294 57.7591 102.222C58.2367 100.13 58.989 97.6569 60.1877 95.0003C60.7746 93.7042 61.3989 92.5234 62.0388 91.4467C64.4143 92.1055 66.8929 92.509 69.4463 92.6205C69.8646 94.6724 70.2018 96.9693 70.3641 99.4786C70.6076 103.212 70.4109 106.516 70.0644 109.246C68.1228 109.632 66.6744 111.201 66.6744 113.076C66.6744 115.242 68.6129 117 71.004 117C73.3951 117 75.3305 115.242 75.3305 113.076C75.3305 111.208 73.8883 109.641 71.9592 109.249C71.6346 106.459 71.4567 103.161 71.6408 99.4786C71.7688 96.9943 72.0435 94.7015 72.3931 92.6278C75.0621 92.5234 77.653 92.102 80.1284 91.4003C80.3407 91.7743 80.5529 92.1631 80.7527 92.5628C82.095 95.2018 82.8192 97.6751 83.2125 99.655C81.4894 100.681 80.6154 102.675 81.2303 104.453C81.942 106.495 84.3394 107.482 86.5963 106.66C88.847 105.836 90.0956 103.514 89.387 101.472C88.7596 99.6624 86.7961 98.683 84.7889 99.0574C83.8681 97.4337 82.7974 94.9821 82.4259 91.8425C82.3791 91.4541 82.3447 91.0723 82.3229 90.6982C85.0824 89.7189 87.6764 88.3834 90.0613 86.7488C91.6034 88.034 93.2266 89.5677 94.8404 91.3894C97.319 94.1901 99.1202 96.9514 100.422 99.2982C99.1014 100.818 98.8704 102.981 99.9911 104.475C101.28 106.192 103.856 106.373 105.754 104.878C107.648 103.384 108.145 100.782 106.855 99.0606C105.741 97.5778 103.662 97.2393 101.895 98.1431C99.9942 96.1664 97.8871 93.6645 95.855 90.59C94.5408 88.6028 93.4576 86.6735 92.5617 84.8624C93.5231 84.0669 94.444 83.2208 95.3149 82.3247C96.7477 80.8556 98.0557 79.2607 99.2107 77.5547C101.346 78.1664 103.815 79.0628 106.431 80.4092C108.953 81.7018 111.054 83.1234 112.749 84.4483C112.106 86.3709 112.718 88.4516 114.307 89.3804C116.142 90.4571 118.586 89.6001 119.776 87.4726C120.962 85.3416 120.434 82.7455 118.599 81.6694C116.994 80.7298 114.922 81.2662 113.632 82.8429C111.741 82.1047 109.446 80.9853 107.068 79.2681C104.595 77.4862 102.732 75.5745 101.377 73.9255C102.292 72.1689 103.063 70.3222 103.678 68.3997C104.705 68.4359 105.785 68.5294 106.912 68.702C109.799 69.1488 112.206 69.9875 114.057 70.8228C113.898 72.8744 115.028 74.7537 116.823 75.2251C118.864 75.7651 121.009 74.2784 121.605 71.9024C122.198 69.5264 121.021 67.1651 118.98 66.6251C117.175 66.1495 115.299 67.2445 114.472 69.134C112.502 68.9685 109.986 68.5259 107.233 67.4312C106.184 67.0139 105.22 66.5492 104.339 66.0634C104.78 64.2814 105.089 62.4486 105.248 60.5699C107.027 60.4223 108.922 60.3288 110.91 60.3249C114.428 60.314 117.619 60.5731 120.422 60.9549C120.759 62.9315 122.242 64.4361 124.052 64.4938C126.162 64.555 127.932 62.618 127.998 60.1664C128.067 57.7148 126.412 55.6773 124.299 55.6161" fill="#FA5752" fill-opacity="0.75"/>
<path d="M246.655 410.493C242.561 410.371 239.033 413.58 238.032 417.991C231.695 418.494 224.454 418.665 216.506 418.153C212.085 417.86 207.882 417.389 203.952 416.805C203.974 416.033 203.984 415.253 203.984 414.474C203.984 410.681 203.712 406.952 203.211 403.304C205.215 401.736 207.719 400.087 210.757 398.674C216.016 396.205 220.937 395.328 224.737 395.076C226.599 399.405 230.878 401.924 234.972 400.827C239.589 399.593 242.235 394.255 240.863 388.902C239.502 383.549 234.667 380.202 230.051 381.436C225.848 382.566 223.278 387.098 223.888 391.948C220.567 393.882 215.624 395.977 209.505 396.131C206.489 396.213 203.843 395.798 201.698 395.263C200.337 389.6 198.388 384.174 195.895 379.057C198.53 376.62 201.644 374.037 205.291 371.542C210.572 367.92 215.667 365.329 220.143 363.468C223.061 366.962 227.71 368.124 231.303 365.996C235.43 363.557 236.584 357.684 233.894 352.892C231.205 348.1 225.663 346.199 221.536 348.644C217.954 350.764 216.604 355.475 218.085 359.813C214.241 362.867 209.516 366.092 203.843 368.968C199.989 370.934 196.297 372.428 192.955 373.565C190.222 368.879 187.032 364.508 183.439 360.519C184.821 355.386 187.151 349.391 191.126 343.38C194.86 337.759 198.998 333.657 202.515 330.773C206.391 333.234 211.269 332.852 214.045 329.611C217.203 325.94 216.484 320.002 212.423 316.347C208.383 312.684 202.547 312.69 199.401 316.363C196.624 319.604 196.842 324.6 199.727 328.246C197.452 332.097 194.011 336.873 188.959 341.423C183.384 346.442 177.788 349.448 173.519 351.235C168.663 347.425 163.372 344.192 157.721 341.634C158.537 339.302 159.626 336.955 161.052 334.648C162.196 332.82 163.426 331.212 164.667 329.806C168.968 331.601 173.792 330.31 175.958 326.549C178.397 322.35 176.612 316.646 171.973 313.821C167.335 310.994 161.608 312.106 159.169 316.314C157.035 320.011 158.156 324.867 161.608 327.905C160.889 329.856 160.018 331.878 158.973 333.94C157.786 336.313 156.501 338.499 155.14 340.52C154.563 340.285 153.997 340.058 153.42 339.847C146.691 337.263 139.516 335.631 132.036 335.078C130.805 331.683 129.738 327.92 128.987 323.787C127.463 315.354 127.746 308.015 128.453 302.502C132.852 301.638 136.14 298.097 136.14 293.854C136.14 288.964 131.774 285 126.385 285C120.984 285 116.607 288.964 116.607 293.854C116.607 298.17 120.015 301.76 124.523 302.544C125.503 307.977 126.145 315.581 124.643 324.396C123.967 328.276 122.977 331.812 121.822 335.014C114.647 335.428 107.755 336.848 101.244 339.135C100.34 337.659 99.5235 336.108 98.794 334.28C97.3568 330.659 96.7361 327.265 96.4857 324.441C100.699 322.19 102.866 317.468 101.385 313.292C99.7521 308.699 94.319 306.513 89.2451 308.412C84.1821 310.311 81.3947 315.573 83.0388 320.167C84.4543 324.13 88.6898 326.294 93.0777 325.593C94.3625 328.297 95.5929 331.415 96.5511 334.957C97.0737 336.832 97.4548 338.666 97.7488 340.46C91.8365 342.862 86.2944 345.996 81.1988 349.745C78.5203 347.756 75.7765 345.447 73.0653 342.742C66.8264 336.513 62.6671 330.124 59.9341 325.007C62.961 321.571 63.4946 316.652 60.9577 313.263C58.0505 309.385 52.2253 308.976 47.9463 312.348C43.6781 315.722 42.5676 321.598 45.4638 325.475C48.0443 328.901 52.8786 329.613 56.929 327.406C60.8705 331.033 65.9989 336.753 69.9622 344.976C71.7805 348.737 73.0435 352.393 73.9364 355.804C73.1197 356.574 72.2922 357.369 71.4974 358.18C67.5232 362.272 63.9627 366.802 60.9141 371.704C59.1175 371.174 57.2557 370.532 55.3502 369.745C49.1549 367.186 44.3532 363.924 40.869 361.081C42.3498 356.66 40.9017 351.891 37.2215 349.822C33.0513 347.471 27.5637 349.499 24.9723 354.353C22.37 359.204 23.6549 365.043 27.8468 367.393C31.5161 369.459 36.198 368.139 39.0398 364.493C43.2644 365.992 48.5342 368.397 53.9674 372.346C55.5898 373.525 57.0706 374.738 58.4534 375.958C54.1526 383.908 51.1474 392.695 49.721 402.024C46.0082 402.349 42.0014 402.506 37.7006 402.369C31.5597 402.176 26.0175 401.438 21.1723 400.477C21.0634 395.598 17.8841 391.515 13.5724 391.05C8.82512 390.539 4.52432 394.586 3.95814 400.09C3.40284 405.593 6.78906 410.467 11.5254 410.977C15.75 411.431 19.6044 408.272 20.813 403.694C25.778 403.797 31.3527 404.253 37.3956 405.319C41.5876 406.058 45.4529 406.999 49.0351 408.046C48.8609 410.165 48.7847 412.307 48.7847 414.474C48.7847 419.62 49.2529 424.651 50.1675 429.53C46.0518 432.322 40.3899 435.487 33.171 437.71C26.845 439.659 21.1506 440.322 16.6102 440.465C14.977 436.127 10.9265 433.421 6.8217 434.233C2.15068 435.16 -0.821763 440.315 0.201724 445.747C1.22521 451.181 5.85266 454.834 10.5237 453.907C14.5741 453.105 17.3288 449.143 17.3397 444.575C21.989 443.024 27.4765 441.569 33.7155 440.622C40.8799 439.534 47.3148 439.377 52.7371 439.619C54.9038 446.352 57.9526 452.676 61.709 458.465C59.9342 459.905 57.9634 461.326 55.7313 462.654C51.4741 465.198 47.391 466.781 43.8414 467.804C41.446 463.873 36.9601 462.028 33.084 463.634C28.6743 465.471 26.7253 471.116 28.7505 476.241C30.0244 479.458 32.5613 481.717 35.3705 482.488C37.0255 482.951 38.7785 482.895 40.4226 482.213C40.9017 482.009 41.3699 481.757 41.7945 481.456C45.0174 479.265 46.3893 474.721 45.0283 470.386C48.3818 468.611 52.3016 466.853 56.8093 465.404C59.7164 464.474 62.482 463.795 65.0843 463.29C67.4579 466.44 70.0711 469.396 72.8693 472.123C73.1307 472.383 73.4028 472.644 73.6642 472.886C71.7696 477.224 68.9169 482.496 64.616 487.841C60.4023 493.073 56.0253 496.882 52.3342 499.572C48.6431 496.882 43.7979 496.94 40.8254 499.953C37.4283 503.389 37.755 509.368 41.5549 513.307C45.3331 517.238 51.1692 517.646 54.5554 514.209C57.5061 511.227 57.6476 506.322 55.1433 502.512C58.0396 498.636 61.8178 494.267 66.6413 489.953C71.8349 485.323 76.9524 481.895 81.4165 479.369C87.3179 483.674 93.8399 487.158 100.797 489.653C100.525 492.341 100.057 495.241 99.284 498.288C97.6072 504.925 95.1029 510.245 92.8273 514.161C88.3523 513.242 83.9316 515.338 82.4182 519.351C80.7087 523.908 83.3981 529.221 88.4285 531.219C93.4479 533.217 98.9138 531.137 100.645 526.572C102.137 522.608 100.307 518.076 96.4857 515.654C97.5636 510.935 99.2731 505.354 101.973 499.359C103.302 496.436 104.706 493.771 106.144 491.343C111.511 492.829 117.097 493.74 122.868 493.991C123.804 498.622 124.566 503.803 124.936 509.465C125.492 517.888 125.045 525.346 124.261 531.503C119.884 532.373 116.607 535.914 116.607 540.147C116.607 545.037 120.973 549 126.385 549C131.774 549 136.14 545.037 136.14 540.147C136.14 535.93 132.885 532.396 128.53 531.511C127.8 525.215 127.408 517.775 127.822 509.465C128.105 503.859 128.726 498.685 129.509 494.007C135.541 493.771 141.388 492.821 146.974 491.236C147.453 492.081 147.921 492.959 148.379 493.861C151.417 499.815 153.05 505.396 153.932 509.863C150.045 512.178 148.063 516.678 149.468 520.692C151.057 525.297 156.479 527.523 161.564 525.67C166.638 523.81 169.469 518.571 167.869 513.965C166.453 509.88 162.021 507.669 157.492 508.515C155.412 504.851 152.995 499.319 152.157 492.236C152.048 491.358 151.972 490.498 151.928 489.653C158.145 487.443 164.003 484.43 169.393 480.742C172.866 483.641 176.525 487.102 180.161 491.212C185.758 497.532 189.83 503.763 192.77 509.059C189.786 512.487 189.275 517.369 191.79 520.74C194.708 524.614 200.522 525.021 204.801 521.649C209.069 518.279 210.18 512.406 207.284 508.524C204.768 505.176 200.076 504.412 196.091 506.452C191.801 501.992 187.043 496.347 182.459 489.409C179.497 484.925 177.047 480.572 175.033 476.485C177.2 474.69 179.268 472.781 181.25 470.758C184.473 467.444 187.424 463.845 190.037 459.995C194.86 461.377 200.424 463.4 206.325 466.437C212.02 469.354 216.767 472.562 220.589 475.551C219.141 479.889 220.513 484.584 224.106 486.679C228.243 489.109 233.764 487.175 236.442 482.375C239.121 477.566 237.923 471.709 233.785 469.279C230.171 467.16 225.478 468.371 222.582 471.929C218.313 470.262 213.131 467.737 207.763 463.862C202.188 459.841 197.974 455.527 194.926 451.807C196.983 447.844 198.725 443.677 200.119 439.338C202.427 439.42 204.877 439.631 207.403 440.021C213.925 441.028 219.359 442.92 223.54 444.805C223.18 449.436 225.728 453.676 229.768 454.74C234.384 455.959 239.219 452.603 240.569 447.243C241.908 441.882 239.262 436.553 234.635 435.334C230.584 434.261 226.349 436.731 224.465 440.995C220.034 440.622 214.339 439.622 208.122 437.154C205.77 436.211 203.593 435.163 201.611 434.066C202.602 430.046 203.299 425.91 203.658 421.67C207.676 421.337 211.944 421.126 216.441 421.117C224.367 421.094 231.575 421.678 237.901 422.539C238.663 426.999 242.006 430.395 246.089 430.526C250.858 430.663 254.854 426.292 254.995 420.761C255.148 415.23 251.413 410.631 246.655 410.493" fill="#FA5752" fill-opacity="0.92"/>
</svg>
