<svg width="234" height="297" viewBox="0 0 234 297" fill="none" xmlns="http://www.w3.org/2000/svg">
<g filter="url(#filter0_d)">
<path d="M219.935 139.427C215.488 139.294 211.656 142.783 210.568 147.578C203.684 148.124 195.819 148.31 187.185 147.754C182.383 147.436 177.817 146.923 173.548 146.288C173.571 145.449 173.583 144.602 173.583 143.754C173.583 139.63 173.287 135.577 172.743 131.611C174.92 129.907 177.64 128.114 180.94 126.578C186.653 123.894 191.999 122.94 196.126 122.666C198.149 127.372 202.797 130.111 207.244 128.918C212.259 127.576 215.133 121.774 213.643 115.955C212.165 110.135 206.913 106.497 201.898 107.839C197.333 109.066 194.542 113.994 195.204 119.266C191.597 121.368 186.227 123.646 179.58 123.813C176.303 123.902 173.429 123.452 171.099 122.87C169.621 116.714 167.504 110.815 164.795 105.252C167.658 102.603 171.04 99.794 175.002 97.0826C180.739 93.1447 186.274 90.3277 191.135 88.3048C194.305 92.103 199.355 93.3658 203.258 91.0527C207.741 88.4019 208.995 82.0173 206.073 76.8068C203.152 71.5977 197.132 69.5309 192.649 72.189C188.758 74.4936 187.291 79.6154 188.9 84.3316C184.725 87.6514 179.592 91.157 173.429 94.2837C169.242 96.4208 165.233 98.0455 161.602 99.2817C158.633 94.1866 155.168 89.4352 151.265 85.0991C152.767 79.5183 155.298 73.0013 159.615 66.4662C163.672 60.356 168.166 55.896 171.986 52.7607C176.197 55.437 181.496 55.0218 184.512 51.498C187.942 47.5067 187.161 41.0516 182.749 37.0786C178.361 33.0958 172.022 33.103 168.604 37.0955C165.588 40.6193 165.824 46.0507 168.959 50.014C166.487 54.2008 162.749 59.3931 157.261 64.3388C151.205 69.7957 145.126 73.0633 140.49 75.0061C135.215 70.8642 129.467 67.3489 123.328 64.5683C124.215 62.0329 125.398 59.4817 126.947 56.9742C128.189 54.9865 129.526 53.238 130.874 51.7105C135.546 53.6618 140.785 52.2581 143.139 48.1696C145.789 43.604 143.849 37.404 138.81 34.3319C133.772 31.2586 127.55 32.4679 124.901 37.0421C122.583 41.0613 123.801 46.3409 127.55 49.6437C126.77 51.7638 125.824 53.9629 124.688 56.2044C123.399 58.7835 122.003 61.1599 120.525 63.3577C119.898 63.1015 119.283 62.8549 118.656 62.6255C111.347 59.8169 103.552 58.0428 95.4268 57.4417C94.0903 53.7503 92.9312 49.6595 92.1151 45.1667C90.4593 35.999 90.7669 28.0201 91.5356 22.0277C96.314 21.0879 99.8858 17.2387 99.8858 12.6257C99.8858 7.30967 95.143 3.00018 89.2884 3.00018C83.422 3.00018 78.6672 7.30967 78.6672 12.6257C78.6672 17.3176 82.3692 21.2203 87.2658 22.0727C88.3303 27.9789 89.0282 36.2455 87.396 45.8285C86.6627 50.0469 85.5863 53.8913 84.3326 57.3714C76.5383 57.8219 69.0515 59.3651 61.9786 61.8519C60.9969 60.2467 60.1099 58.5613 59.3174 56.5736C57.7562 52.6369 57.082 48.948 56.81 45.8771C61.3872 43.4304 63.7409 38.2976 62.1323 33.7575C60.3582 28.7644 54.4563 26.3882 48.9446 28.4524C43.4448 30.5167 40.417 36.237 42.203 41.2313C43.7405 45.5395 48.3415 47.8915 53.108 47.1302C54.5036 50.0699 55.8402 53.4589 56.881 57.3094C57.4487 59.3481 57.8627 61.342 58.182 63.2921C51.7597 65.904 45.7395 69.31 40.2042 73.3863C37.2946 71.2237 34.314 68.7138 31.369 65.7728C24.5918 59.0009 20.0736 52.0552 17.1049 46.4927C20.393 42.7576 20.9726 37.41 18.2167 33.7259C15.0588 29.51 8.73107 29.0655 4.08285 32.7314C-0.553547 36.3985 -1.75993 42.7868 1.38619 47.0015C4.18932 50.7257 9.44072 51.5004 13.8406 49.101C18.1221 53.0437 23.6929 59.2619 27.9981 68.2013C29.9733 72.2898 31.3453 76.2653 32.3152 79.9725C31.4281 80.8103 30.5292 81.6748 29.6658 82.5563C25.3487 87.0042 21.4811 91.9293 18.1694 97.2587C16.2179 96.6819 14.1954 95.9837 12.1256 95.1289C5.3957 92.347 0.179762 88.8002 -3.60505 85.7099C-1.99651 80.9038 -3.56957 75.7188 -7.56727 73.47C-12.0972 70.914 -18.0583 73.1191 -20.8732 78.3951C-23.7 83.6687 -22.3043 90.0169 -17.7507 92.5717C-13.7648 94.8181 -8.67903 93.3828 -5.59205 89.4194C-1.00297 91.049 4.72151 93.6633 10.6234 97.9557C12.3857 99.238 13.9943 100.557 15.4964 101.883C10.8245 110.526 7.56012 120.078 6.01071 130.22C1.97752 130.573 -2.37494 130.743 -7.04681 130.595C-13.7175 130.385 -19.7378 129.582 -25.0011 128.538C-25.1194 123.234 -28.573 118.795 -33.2567 118.29C-38.4135 117.734 -43.0853 122.134 -43.7004 128.117C-44.3036 134.099 -40.6252 139.399 -35.4802 139.952C-30.8912 140.447 -26.7042 137.013 -25.3914 132.035C-19.998 132.147 -13.9424 132.642 -7.37808 133.802C-2.82448 134.605 1.37434 135.628 5.2656 136.766C5.07636 139.07 4.99359 141.398 4.99359 143.754C4.99359 149.348 5.5022 154.819 6.49571 160.122C2.0249 163.157 -4.12548 166.598 -11.9671 169.015C-18.8389 171.133 -25.0247 171.855 -29.9568 172.01C-31.7309 167.294 -36.1308 164.352 -40.5898 165.234C-45.6638 166.242 -48.8927 171.846 -47.7809 177.752C-46.6691 183.66 -41.6424 187.63 -36.5684 186.623C-32.1686 185.751 -29.1761 181.444 -29.1643 176.477C-24.1139 174.792 -18.1529 173.21 -11.3758 172.18C-3.59324 170.997 3.39685 170.827 9.28696 171.09C11.6406 178.409 14.9524 185.284 19.0329 191.578C17.105 193.143 14.9642 194.688 12.5395 196.131C7.91497 198.898 3.47962 200.618 -0.376157 201.73C-2.97821 197.457 -7.85113 195.451 -12.0617 197.198C-16.8519 199.194 -18.969 205.331 -16.7691 210.903C-15.3852 214.4 -12.6295 216.855 -9.57795 217.694C-7.78016 218.197 -5.87589 218.136 -4.08993 217.394C-3.56952 217.173 -3.06098 216.899 -2.59971 216.572C0.901242 214.19 2.39153 209.25 0.913093 204.538C4.55597 202.608 8.81391 200.697 13.7105 199.121C16.8685 198.111 19.8726 197.372 22.6994 196.824C25.2778 200.248 28.1164 203.461 31.1561 206.426C31.44 206.709 31.7356 206.992 32.0195 207.255C29.9615 211.972 26.8626 217.703 22.1908 223.513C17.6135 229.201 12.8589 233.341 8.84932 236.267C4.83979 233.341 -0.423487 233.405 -3.6524 236.681C-7.34259 240.416 -6.98774 246.916 -2.85994 251.198C1.24422 255.471 7.58382 255.915 11.2622 252.178C14.4674 248.936 14.6211 243.604 11.9008 239.463C15.0469 235.249 19.1511 230.499 24.3907 225.809C30.0325 220.776 35.5914 217.05 40.4407 214.303C46.8512 218.983 53.9359 222.771 61.4937 225.483C61.198 228.405 60.6894 231.558 59.8497 234.87C58.0282 242.085 55.3079 247.869 52.8359 252.126C47.9748 251.127 43.1728 253.406 41.5288 257.769C39.6718 262.723 42.5933 268.498 48.0576 270.67C53.5101 272.843 59.4475 270.582 61.3281 265.619C62.9485 261.31 60.9614 256.382 56.81 253.75C57.9809 248.619 59.8378 242.552 62.7711 236.035C64.214 232.857 65.7398 229.96 67.301 227.32C73.132 228.936 79.1994 229.926 85.468 230.199C86.4852 235.233 87.3131 240.866 87.7153 247.021C88.3185 256.178 87.8336 264.286 86.982 270.979C82.2274 271.925 78.6672 275.774 78.6672 280.376C78.6672 285.692 83.4101 290 89.2884 290C95.143 290 99.8858 285.692 99.8858 280.376C99.8858 275.792 96.3494 271.95 91.6183 270.987C90.8259 264.144 90.4001 256.055 90.8496 247.021C91.1571 240.927 91.8312 235.302 92.6828 230.216C99.2353 229.96 105.587 228.928 111.654 227.204C112.175 228.122 112.683 229.077 113.18 230.058C116.48 236.53 118.254 242.598 119.212 247.454C114.99 249.971 112.837 254.863 114.363 259.226C116.09 264.232 121.98 266.652 127.503 264.638C133.015 262.616 136.09 256.92 134.351 251.914C132.814 247.472 128 245.069 123.08 245.988C120.821 242.005 118.195 235.991 117.284 228.291C117.166 227.337 117.083 226.402 117.036 225.483C123.789 223.081 130.153 219.805 136.007 215.795C139.78 218.947 143.754 222.709 147.705 227.178C153.784 234.048 158.207 240.822 161.401 246.579C158.16 250.306 157.604 255.613 160.336 259.278C163.506 263.49 169.822 263.932 174.47 260.267C179.107 256.603 180.313 250.218 177.167 245.998C174.435 242.359 169.337 241.528 165.008 243.745C160.348 238.897 155.18 232.76 150.2 225.218C146.983 220.343 144.322 215.611 142.134 211.168C144.487 209.216 146.735 207.141 148.887 204.942C152.388 201.339 155.594 197.427 158.432 193.242C163.672 194.744 169.716 196.943 176.126 200.244C182.312 203.416 187.469 206.903 191.62 210.153C190.047 214.869 191.537 219.972 195.441 222.25C199.935 224.891 205.932 222.789 208.841 217.571C211.751 212.343 210.45 205.975 205.955 203.334C202.028 201.031 196.931 202.347 193.785 206.215C189.148 204.403 183.518 201.658 177.687 197.445C171.632 193.074 167.054 188.384 163.743 184.34C165.978 180.032 167.87 175.501 169.384 170.785C171.892 170.874 174.553 171.103 177.297 171.527C184.382 172.622 190.284 174.679 194.825 176.728C194.435 181.762 197.203 186.371 201.591 187.528C206.606 188.853 211.857 185.205 213.324 179.378C214.778 173.55 211.904 167.757 206.878 166.432C202.478 165.265 197.877 167.951 195.831 172.586C191.017 172.18 184.831 171.093 178.078 168.41C175.523 167.385 173.157 166.246 171.005 165.054C172.081 160.683 172.838 156.187 173.228 151.578C177.593 151.216 182.229 150.986 187.114 150.977C195.724 150.951 203.554 151.586 210.426 152.522C211.254 157.371 214.885 161.062 219.32 161.204C224.501 161.354 228.841 156.602 228.995 150.589C229.161 144.576 225.104 139.577 219.935 139.427Z" fill="#128E5A" fill-opacity="0.74"/>
</g>
<defs>
<filter id="filter0_d" x="-53" y="0.000183105" width="287" height="297" filterUnits="userSpaceOnUse" color-interpolation-filters="sRGB">
<feFlood flood-opacity="0" result="BackgroundImageFix"/>
<feColorMatrix in="SourceAlpha" type="matrix" values="0 0 0 0 0 0 0 0 0 0 0 0 0 0 0 0 0 0 127 0"/>
<feOffset dy="2"/>
<feGaussianBlur stdDeviation="2.5"/>
<feColorMatrix type="matrix" values="0 0 0 0 0 0 0 0 0 0 0 0 0 0 0 0 0 0 0.1 0"/>
<feBlend mode="normal" in2="BackgroundImageFix" result="effect1_dropShadow"/>
<feBlend mode="normal" in="SourceGraphic" in2="effect1_dropShadow" result="shape"/>
</filter>
</defs>
</svg>
